<!-- Generated by IcoMoon.io -->
<svg version="1.1" xmlns="http://www.w3.org/2000/svg" width="60" height="60" viewBox="0 0 60 60">
<title>times-outline</title>
<path d="M40 47.5c-2.005 0-3.888-0.78-5.305-2.198l-4.695-4.698-4.698 4.698c-2.832 2.832-7.773 2.832-10.608 0-1.415-1.415-2.195-3.3-2.195-5.302s0.78-3.888 2.197-5.305l4.695-4.695-4.695-4.698c-1.418-1.415-2.197-3.3-2.197-5.302s0.78-3.888 2.197-5.305c2.832-2.83 7.773-2.832 10.608 0.003l4.695 4.698 4.698-4.698c2.832-2.832 7.773-2.832 10.608 0 1.415 1.415 2.195 3.3 2.195 5.303s-0.78 3.888-2.198 5.305l-4.695 4.695 4.695 4.698c1.418 1.415 2.198 3.3 2.198 5.303s-0.78 3.888-2.198 5.305c-1.415 1.415-3.297 2.195-5.302 2.195zM30 33.535l8.232 8.232c0.945 0.945 2.592 0.942 3.535 0 0.472-0.472 0.732-1.098 0.732-1.767s-0.26-1.295-0.732-1.767l-8.23-8.232 8.23-8.232c0.472-0.473 0.732-1.1 0.732-1.767s-0.26-1.295-0.732-1.767c-0.945-0.948-2.592-0.945-3.535-0.003l-8.232 8.235-8.232-8.232c-0.945-0.945-2.592-0.942-3.535 0-0.473 0.473-0.732 1.1-0.732 1.767s0.26 1.295 0.732 1.767l8.23 8.232-8.23 8.232c-0.473 0.472-0.732 1.098-0.732 1.767s0.26 1.295 0.732 1.767c0.945 0.948 2.592 0.945 3.535 0.003l8.232-8.235z"></path>
</svg>
